<svg width="24" height="24" viewBox="0 0 24 24" fill="none" xmlns="http://www.w3.org/2000/svg">
<path d="M6.66667 21.4C6.66667 21.7314 6.39804 22 6.06667 22H3.93333C3.60196 22 3.33333 21.7314 3.33333 21.4L3.33333 9.6C3.33333 9.26863 3.0647 9 2.73333 9H1.16591C0.677889 9 0.394016 8.44838 0.677674 8.05126L4.51176 2.68354C4.75105 2.34853 5.24895 2.34853 5.48824 2.68354L9.32233 8.05126C9.60598 8.44838 9.32211 9 8.83409 9H7.26667C6.9353 9 6.66667 9.26863 6.66667 9.6L6.66667 21.4Z" fill="currentColor"/>
<path d="M10 4.6C10 3.71634 10.7163 3 11.6 3H13.6C14.4837 3 15.2 3.71634 15.2 4.6V5.4C15.2 6.28366 14.4837 7 13.6 7H11.6C10.7163 7 10 6.28366 10 5.4V4.6ZM10 11.6C10 10.7163 10.7163 10 11.6 10H17.5C18.3837 10 19.1 10.7163 19.1 11.6V12.4C19.1 13.2837 18.3837 14 17.5 14H11.6C10.7163 14 10 13.2837 10 12.4V11.6ZM10 18.6C10 17.7163 10.7163 17 11.6 17H21.4C22.2837 17 23 17.7163 23 18.6V19.4C23 20.2837 22.2837 21 21.4 21H11.6C10.7163 21 10 20.2837 10 19.4V18.6Z" fill="currentColor"/>
</svg>
