<svg xmlns="http://www.w3.org/2000/svg" width="24" height="24" viewBox="0 0 24 24" fill="none">
<g clip-path="url(#clip0_107_2)">
<mask id="mask0_107_2" style="mask-type:luminance" maskUnits="userSpaceOnUse" x="0" y="0" width="24" height="24">
<path d="M0 0H24V24H0V0Z" fill="white" />
<path d="M22 2L2 22Z" fill="#222221" />
<path d="M22 2L2 22" stroke="black" stroke-width="5" />
</mask>
<g mask="url(#mask0_107_2)">
<path fill-rule="evenodd" clip-rule="evenodd" d="M2.02937 13.5083C1.34709 12.618 1.34709 11.382 2.02937 10.4917C4.72025 6.98048 8.20428 5.5 12 5.5C15.7957 5.5 19.2797 6.98048 21.9706 10.4917C22.6529 11.382 22.6529 12.618 21.9706 13.5083C19.2797 17.0195 15.7957 18.5 12 18.5C8.20428 18.5 4.72025 17.0195 2.02937 13.5083ZM5.54337 10.3325C4.53032 11.218 4.53032 12.782 5.54337 13.6675C7.44828 15.3327 9.66348 16 12 16C14.3365 16 16.5517 15.3327 18.4566 13.6675C19.4697 12.782 19.4697 11.218 18.4566 10.3325C16.5517 8.66725 14.3365 8 12 8C9.66348 8 7.44828 8.66725 5.54337 10.3325Z" fill="currentColor" />
<path d="M12 17C14.7614 17 17 14.7614 17 12C17 9.23858 14.7614 7 12 7C9.23858 7 7 9.23858 7 12C7 14.7614 9.23858 17 12 17Z" fill="currentColor" />
<path d="M3.59855 5.11567C3.43333 4.8303 3.52937 4.46508 3.81359 4.29789L4.47924 3.90633C4.76626 3.73749 5.13587 3.83468 5.30271 4.12287L6.90145 6.88433C7.06667 7.1697 6.97063 7.53492 6.68641 7.70211L6.02076 8.09367C5.73374 8.26251 5.36413 8.16532 5.19729 7.87713L3.59855 5.11567ZM11 3.1C11 2.76863 11.2686 2.5 11.6 2.5H12.4C12.7314 2.5 13 2.76863 13 3.1V6.4C13 6.73137 12.7314 7 12.4 7H11.6C11.2686 7 11 6.73137 11 6.4V3.1ZM18.6973 4.12287C18.8641 3.83468 19.2337 3.73749 19.5208 3.90633L20.1864 4.29789C20.4706 4.46508 20.5667 4.8303 20.4015 5.11567L18.8027 7.87713C18.6359 8.16532 18.2663 8.26251 17.9792 8.09367L17.3136 7.70211C17.0294 7.53492 16.9333 7.1697 17.0985 6.88433L18.6973 4.12287Z" fill="currentColor" />
</g>
<path d="M20.2329 1.64711C20.6234 1.25658 21.2566 1.25659 21.6471 1.64711L22.3529 2.3529C22.7434 2.74342 22.7434 3.37658 22.3529 3.76711L3.76711 22.3529C3.37658 22.7434 2.74342 22.7434 2.35289 22.3529L1.64711 21.6471C1.25658 21.2566 1.25658 20.6234 1.64711 20.2329L20.2329 1.64711Z" fill="currentColor" />
</g>
<defs>
<clipPath id="clip0_107_2">
<rect width="24" height="24" fill="white" />
</clipPath>
</defs>
</svg>
